<svg xmlns="http://www.w3.org/2000/svg" xmlns:xlink="http://www.w3.org/1999/xlink" width="1000" zoomAndPan="magnify" viewBox="0 0 750 374.999991" height="500" preserveAspectRatio="xMidYMid meet" version="1.0"><defs><g/></defs><g fill="#ff0000" fill-opacity="1"><g transform="translate(-3.453451, 231.721178)"><g><path d="M 11.828125 -44.5 C 10.441406 -44.5 9.351562 -44.101562 8.5625 -43.3125 C 7.78125 -42.519531 7.390625 -41.4375 7.390625 -40.0625 L 7.390625 -4.4375 C 7.390625 -3.050781 7.78125 -1.960938 8.5625 -1.171875 C 9.351562 -0.390625 10.441406 0 11.828125 0 L 139.546875 0 C 140.929688 0 142.015625 -0.390625 142.796875 -1.171875 C 143.585938 -1.960938 143.984375 -3.050781 143.984375 -4.4375 L 143.984375 -14.1875 C 143.984375 -15.570312 143.585938 -16.65625 142.796875 -17.4375 C 142.015625 -18.226562 140.929688 -18.625 139.546875 -18.625 L 26.171875 -18.625 L 26.171875 -35.03125 C 26.171875 -37.101562 26.882812 -38.878906 28.3125 -40.359375 C 29.738281 -41.835938 31.488281 -42.578125 33.5625 -42.578125 L 122.546875 -42.578125 C 123.929688 -42.578125 125.015625 -42.96875 125.796875 -43.75 C 126.585938 -44.539062 126.984375 -45.628906 126.984375 -47.015625 L 126.984375 -56.90625 C 126.984375 -58.289062 126.585938 -59.375 125.796875 -60.15625 C 125.015625 -60.945312 123.929688 -61.34375 122.546875 -61.34375 L 33.5625 -61.34375 C 31.488281 -61.34375 29.738281 -62.054688 28.3125 -63.484375 C 26.882812 -64.921875 26.171875 -66.671875 26.171875 -68.734375 L 26.171875 -84.859375 L 139.546875 -84.859375 C 140.929688 -84.859375 142.015625 -85.25 142.796875 -86.03125 C 143.585938 -86.820312 143.984375 -87.90625 143.984375 -89.28125 L 143.984375 -99.046875 C 143.984375 -100.421875 143.585938 -101.503906 142.796875 -102.296875 C 142.015625 -103.085938 140.929688 -103.484375 139.546875 -103.484375 L 11.828125 -103.484375 C 10.441406 -103.484375 9.351562 -103.085938 8.5625 -102.296875 C 7.78125 -101.503906 7.390625 -100.421875 7.390625 -99.046875 L 7.390625 -63.859375 C 7.390625 -62.484375 7.78125 -61.398438 8.5625 -60.609375 C 9.351562 -59.816406 10.441406 -59.421875 11.828125 -59.421875 L 16.703125 -59.421875 C 18.773438 -59.421875 20.550781 -58.679688 22.03125 -57.203125 C 23.507812 -55.722656 24.25 -53.953125 24.25 -51.890625 C 24.25 -49.816406 23.507812 -48.066406 22.03125 -46.640625 C 20.550781 -45.210938 18.773438 -44.5 16.703125 -44.5 Z M 11.828125 -44.5 "/></g></g></g><g fill="#ff0000" fill-opacity="1"><g transform="translate(147.926606, 231.721178)"><g><path d="M 23.953125 -55.28125 C 23.953125 -55.28125 23.953125 -54.25 23.953125 -52.1875 C 23.953125 -50.113281 23.234375 -48.265625 21.796875 -46.640625 C 20.367188 -45.015625 18.625 -44.203125 16.5625 -44.203125 L 11.828125 -44.203125 C 10.441406 -44.203125 9.351562 -43.804688 8.5625 -43.015625 C 7.78125 -42.222656 7.390625 -41.140625 7.390625 -39.765625 L 7.390625 -4.4375 C 7.390625 -3.050781 7.78125 -1.960938 8.5625 -1.171875 C 9.351562 -0.390625 10.441406 0 11.828125 0 L 21.4375 0 C 22.8125 0 23.894531 -0.390625 24.6875 -1.171875 C 25.476562 -1.960938 25.875 -3.050781 25.875 -4.4375 L 25.875 -34.890625 C 25.875 -37.648438 26.335938 -39.570312 27.265625 -40.65625 C 28.203125 -41.738281 30.203125 -42.28125 33.265625 -42.28125 L 125.203125 -42.28125 L 125.203125 -4.4375 C 125.203125 -3.050781 125.597656 -1.960938 126.390625 -1.171875 C 127.179688 -0.390625 128.265625 0 129.640625 0 L 139.546875 0 C 140.929688 0 142.015625 -0.390625 142.796875 -1.171875 C 143.585938 -1.960938 143.984375 -3.050781 143.984375 -4.4375 L 143.984375 -99.046875 C 143.984375 -100.421875 143.585938 -101.503906 142.796875 -102.296875 C 142.015625 -103.085938 140.929688 -103.484375 139.546875 -103.484375 L 11.828125 -103.484375 C 10.441406 -103.484375 9.351562 -103.085938 8.5625 -102.296875 C 7.78125 -101.503906 7.390625 -100.421875 7.390625 -99.046875 L 7.390625 -63.5625 C 7.390625 -62.1875 7.78125 -61.101562 8.5625 -60.3125 C 9.351562 -59.519531 10.441406 -59.125 11.828125 -59.125 L 16.5625 -59.125 C 18.625 -59.125 20.394531 -58.484375 21.875 -57.203125 C 23.257812 -55.921875 23.953125 -55.28125 23.953125 -55.28125 Z M 125.203125 -61.046875 L 33.265625 -61.046875 C 30.203125 -61.046875 28.203125 -61.710938 27.265625 -63.046875 C 26.335938 -64.378906 25.875 -66.226562 25.875 -68.59375 L 25.875 -84.703125 L 125.203125 -84.703125 Z M 125.203125 -61.046875 "/></g></g></g><g fill="#ff0000" fill-opacity="1"><g transform="translate(299.306664, 231.721178)"><g><path d="M 23.953125 -55.28125 C 23.953125 -55.28125 23.953125 -54.25 23.953125 -52.1875 C 23.953125 -50.113281 23.234375 -48.265625 21.796875 -46.640625 C 20.367188 -45.015625 18.625 -44.203125 16.5625 -44.203125 L 11.828125 -44.203125 C 10.441406 -44.203125 9.351562 -43.804688 8.5625 -43.015625 C 7.78125 -42.222656 7.390625 -41.140625 7.390625 -39.765625 L 7.390625 -4.4375 C 7.390625 -3.050781 7.78125 -1.960938 8.5625 -1.171875 C 9.351562 -0.390625 10.441406 0 11.828125 0 L 21.4375 0 C 22.8125 0 23.894531 -0.390625 24.6875 -1.171875 C 25.476562 -1.960938 25.875 -3.050781 25.875 -4.4375 L 25.875 -34.890625 C 25.875 -37.648438 26.335938 -39.570312 27.265625 -40.65625 C 28.203125 -41.738281 30.203125 -42.28125 33.265625 -42.28125 L 125.203125 -42.28125 L 125.203125 -4.4375 C 125.203125 -3.050781 125.597656 -1.960938 126.390625 -1.171875 C 127.179688 -0.390625 128.265625 0 129.640625 0 L 139.546875 0 C 140.929688 0 142.015625 -0.390625 142.796875 -1.171875 C 143.585938 -1.960938 143.984375 -3.050781 143.984375 -4.4375 L 143.984375 -99.046875 C 143.984375 -100.421875 143.585938 -101.503906 142.796875 -102.296875 C 142.015625 -103.085938 140.929688 -103.484375 139.546875 -103.484375 L 11.828125 -103.484375 C 10.441406 -103.484375 9.351562 -103.085938 8.5625 -102.296875 C 7.78125 -101.503906 7.390625 -100.421875 7.390625 -99.046875 L 7.390625 -63.5625 C 7.390625 -62.1875 7.78125 -61.101562 8.5625 -60.3125 C 9.351562 -59.519531 10.441406 -59.125 11.828125 -59.125 L 16.5625 -59.125 C 18.625 -59.125 20.394531 -58.484375 21.875 -57.203125 C 23.257812 -55.921875 23.953125 -55.28125 23.953125 -55.28125 Z M 125.203125 -61.046875 L 33.265625 -61.046875 C 30.203125 -61.046875 28.203125 -61.710938 27.265625 -63.046875 C 26.335938 -64.378906 25.875 -66.226562 25.875 -68.59375 L 25.875 -84.703125 L 125.203125 -84.703125 Z M 125.203125 -61.046875 "/></g></g></g><g fill="#ff0000" fill-opacity="1"><g transform="translate(450.686721, 231.721178)"><g><path d="M 24.25 -101.109375 C 24.25 -101.109375 24.25 -100.421875 24.25 -99.046875 L 24.25 -91.203125 C 24.25 -89.828125 23.753906 -88.644531 22.765625 -87.65625 C 21.773438 -86.675781 20.59375 -86.1875 19.21875 -86.1875 L 11.828125 -86.1875 C 10.441406 -86.1875 9.351562 -85.789062 8.5625 -85 C 7.78125 -84.207031 7.390625 -83.125 7.390625 -81.75 L 7.390625 -20.984375 C 7.390625 -19.609375 7.78125 -18.523438 8.5625 -17.734375 C 9.351562 -16.953125 10.441406 -16.5625 11.828125 -16.5625 L 19.21875 -16.5625 C 20.59375 -16.5625 21.773438 -16.066406 22.765625 -15.078125 C 23.753906 -14.085938 24.25 -12.90625 24.25 -11.53125 L 24.25 -4.4375 C 24.25 -3.050781 24.640625 -1.960938 25.421875 -1.171875 C 26.210938 -0.390625 27.296875 0 28.671875 0 L 122.703125 0 C 124.078125 0 125.15625 -0.390625 125.9375 -1.171875 C 126.726562 -1.960938 127.125 -3.050781 127.125 -4.4375 L 127.125 -11.53125 C 127.125 -12.90625 127.617188 -14.085938 128.609375 -15.078125 C 129.597656 -16.066406 130.78125 -16.5625 132.15625 -16.5625 L 139.546875 -16.5625 C 140.929688 -16.5625 142.015625 -16.953125 142.796875 -17.734375 C 143.585938 -18.523438 143.984375 -19.609375 143.984375 -20.984375 L 143.984375 -81.59375 C 143.984375 -82.976562 143.585938 -84.0625 142.796875 -84.84375 C 142.015625 -85.632812 140.929688 -86.03125 139.546875 -86.03125 L 132.15625 -86.03125 C 130.78125 -86.03125 129.597656 -86.523438 128.609375 -87.515625 C 127.617188 -88.503906 127.125 -89.6875 127.125 -91.0625 L 127.125 -99.046875 C 127.125 -100.421875 126.726562 -101.503906 125.9375 -102.296875 C 125.15625 -103.085938 124.078125 -103.484375 122.703125 -103.484375 L 28.671875 -103.484375 C 27.296875 -103.484375 26.210938 -103.085938 25.421875 -102.296875 C 24.640625 -101.503906 24.25 -101.109375 24.25 -101.109375 Z M 26.171875 -81.453125 C 26.171875 -81.453125 26.660156 -81.941406 27.640625 -82.921875 C 28.628906 -83.910156 29.8125 -84.40625 31.1875 -84.40625 L 120.1875 -84.40625 C 121.5625 -84.40625 122.738281 -83.910156 123.71875 -82.921875 C 124.707031 -81.941406 125.203125 -80.765625 125.203125 -79.390625 L 125.203125 -23.5 C 125.203125 -22.125 124.707031 -20.941406 123.71875 -19.953125 C 122.738281 -18.972656 121.5625 -18.484375 120.1875 -18.484375 L 31.1875 -18.484375 C 29.8125 -18.484375 28.628906 -18.972656 27.640625 -19.953125 C 26.660156 -20.941406 26.171875 -22.125 26.171875 -23.5 L 26.171875 -79.390625 C 26.171875 -80.765625 26.171875 -81.453125 26.171875 -81.453125 Z M 26.171875 -81.453125 "/></g></g></g><g fill="#ff0000" fill-opacity="1"><g transform="translate(602.066779, 231.721178)"><g><path d="M 23.953125 -55.28125 C 23.953125 -55.28125 23.953125 -54.25 23.953125 -52.1875 C 23.953125 -50.113281 23.234375 -48.265625 21.796875 -46.640625 C 20.367188 -45.015625 18.625 -44.203125 16.5625 -44.203125 L 11.828125 -44.203125 C 10.441406 -44.203125 9.351562 -43.804688 8.5625 -43.015625 C 7.78125 -42.222656 7.390625 -41.140625 7.390625 -39.765625 L 7.390625 -4.4375 C 7.390625 -3.050781 7.78125 -1.960938 8.5625 -1.171875 C 9.351562 -0.390625 10.441406 0 11.828125 0 L 21.4375 0 C 22.8125 0 23.894531 -0.390625 24.6875 -1.171875 C 25.476562 -1.960938 25.875 -3.050781 25.875 -4.4375 L 25.875 -34.890625 C 25.875 -37.648438 26.335938 -39.570312 27.265625 -40.65625 C 28.203125 -41.738281 30.203125 -42.28125 33.265625 -42.28125 L 125.203125 -42.28125 L 125.203125 -4.4375 C 125.203125 -3.050781 125.597656 -1.960938 126.390625 -1.171875 C 127.179688 -0.390625 128.265625 0 129.640625 0 L 139.546875 0 C 140.929688 0 142.015625 -0.390625 142.796875 -1.171875 C 143.585938 -1.960938 143.984375 -3.050781 143.984375 -4.4375 L 143.984375 -99.046875 C 143.984375 -100.421875 143.585938 -101.503906 142.796875 -102.296875 C 142.015625 -103.085938 140.929688 -103.484375 139.546875 -103.484375 L 11.828125 -103.484375 C 10.441406 -103.484375 9.351562 -103.085938 8.5625 -102.296875 C 7.78125 -101.503906 7.390625 -100.421875 7.390625 -99.046875 L 7.390625 -63.5625 C 7.390625 -62.1875 7.78125 -61.101562 8.5625 -60.3125 C 9.351562 -59.519531 10.441406 -59.125 11.828125 -59.125 L 16.5625 -59.125 C 18.625 -59.125 20.394531 -58.484375 21.875 -57.203125 C 23.257812 -55.921875 23.953125 -55.28125 23.953125 -55.28125 Z M 125.203125 -61.046875 L 33.265625 -61.046875 C 30.203125 -61.046875 28.203125 -61.710938 27.265625 -63.046875 C 26.335938 -64.378906 25.875 -66.226562 25.875 -68.59375 L 25.875 -84.703125 L 125.203125 -84.703125 Z M 125.203125 -61.046875 "/></g></g></g></svg>